<svg id="visual" viewBox="0 0 900 600" width="900" height="600" xmlns="http://www.w3.org/2000/svg" xmlns:xlink="http://www.w3.org/1999/xlink" version="1.1"><rect x="0" y="0" width="900" height="600" fill="#F9EDDD"></rect><defs><linearGradient id="grad1_0" x1="33.3%" y1="100%" x2="100%" y2="0%"><stop offset="20%" stop-color="#f9eddd" stop-opacity="1"></stop><stop offset="80%" stop-color="#f9eddd" stop-opacity="1"></stop></linearGradient></defs><defs><linearGradient id="grad2_0" x1="0%" y1="100%" x2="66.7%" y2="0%"><stop offset="20%" stop-color="#f9eddd" stop-opacity="1"></stop><stop offset="80%" stop-color="#f9eddd" stop-opacity="1"></stop></linearGradient></defs><g transform="translate(900, 600)"><path d="M-351.5 0C-345.6 -45.9 -339.8 -91.8 -323.4 -133.9C-307 -176.1 -280 -214.4 -247.5 -247.5C-214.9 -280.6 -176.7 -308.3 -134.5 -324.8C-92.3 -341.2 -46.2 -346.4 0 -351.5L0 0Z" fill="#000000"></path></g><g transform="translate(0, 0)"><path d="M351.5 0C338 42.6 324.5 85.1 309.5 128.2C294.5 171.3 278 214.9 248.6 248.6C219.1 282.3 176.8 306 133.2 321.5C89.6 337 44.8 344.3 0 351.5L0 0Z" fill="#000000"></path></g></svg>