<svg id="visual" viewBox="0 0 900 600" width="900" height="600" xmlns="http://www.w3.org/2000/svg" xmlns:xlink="http://www.w3.org/1999/xlink" version="1.1"><rect x="0" y="0" width="900" height="600" fill="#F9EDDD"></rect><defs><linearGradient id="grad1_0" x1="33.3%" y1="0%" x2="100%" y2="100%"><stop offset="20%" stop-color="#f9eddd" stop-opacity="1"></stop><stop offset="80%" stop-color="#f9eddd" stop-opacity="1"></stop></linearGradient></defs><defs><linearGradient id="grad2_0" x1="0%" y1="0%" x2="66.7%" y2="100%"><stop offset="20%" stop-color="#f9eddd" stop-opacity="1"></stop><stop offset="80%" stop-color="#f9eddd" stop-opacity="1"></stop></linearGradient></defs><g transform="translate(900, 0)"><path d="M0 297.5C-38.1 292 -76.1 286.6 -113.3 273.5C-150.4 260.4 -186.6 239.6 -210.3 210.3C-234.1 181.1 -245.3 143.2 -257.8 106.8C-270.2 70.3 -283.8 35.1 -297.5 0L0 0Z" fill="#000000"></path></g><g transform="translate(0, 600)"><path d="M0 -297.5C35.3 -282.5 70.7 -267.6 104.9 -253.1C139.1 -238.7 172.1 -224.7 202.2 -202.2C232.3 -179.8 259.4 -148.9 274.8 -113.8C290.2 -78.7 293.8 -39.4 297.5 0L0 0Z" fill="#000000"></path></g></svg>