<svg id="visual" viewBox="0 0 900 600" width="900" height="600" xmlns="http://www.w3.org/2000/svg" xmlns:xlink="http://www.w3.org/1999/xlink" version="1.1"><g transform="translate(449.77706006882386 294.706538852621)"><path d="M63.4 -80.7C78.8 -62.6 85.6 -39.5 94.6 -13C103.7 13.5 115.1 43.2 108.2 69.4C101.4 95.7 76.3 118.3 49.7 121.5C23 124.7 -5.2 108.4 -30.4 94.5C-55.5 80.6 -77.6 69 -92 50.2C-106.4 31.3 -113.3 5 -108.2 -18.2C-103 -41.4 -85.9 -61.7 -65.9 -79C-45.9 -96.3 -22.9 -110.7 0.5 -111.3C24 -111.9 48 -98.9 63.4 -80.7" fill="#fdc780"></path></g></svg>