<svg id="visual" viewBox="0 0 900 600" width="900" height="600" xmlns="http://www.w3.org/2000/svg" xmlns:xlink="http://www.w3.org/1999/xlink" version="1.1"><g transform="translate(458.59696399231234 316.27012905587173)"><path d="M121.1 -215.8C155.9 -189.7 182.3 -155.1 207.4 -117.7C232.5 -80.3 256.2 -40.2 262 3.3C267.8 46.8 255.6 93.7 231.3 132.5C207.1 171.3 170.8 202.1 130.2 216.2C89.7 230.3 44.8 227.7 3.7 221.3C-37.5 215 -75 204.9 -118.3 192.4C-161.6 179.9 -210.7 165 -241.6 132.5C-272.5 100 -285.3 50 -279.1 3.6C-272.9 -42.8 -247.7 -85.7 -219.4 -122.6C-191 -159.6 -159.5 -190.6 -122.4 -215.4C-85.3 -240.1 -42.7 -258.6 0.2 -259C43.2 -259.4 86.3 -241.9 121.1 -215.8" fill="#fdc780"></path></g></svg>